<?xml version="1.0" encoding="UTF-8"?>
<svg version="1.1" xmlns="http://www.w3.org/2000/svg" width="228" height="230">
<path d="M0 0 C0.98790024 -0.00637985 1.97580048 -0.0127597 2.99363708 -0.01933289 C4.59212242 -0.02100212 4.59212242 -0.02100212 6.22290039 -0.02270508 C7.3189711 -0.02603348 8.41504181 -0.02936188 9.54432678 -0.03279114 C11.86353129 -0.03785614 14.18274309 -0.04019959 16.50195312 -0.04003906 C20.05293763 -0.04222548 23.6036115 -0.06038574 27.15454102 -0.0793457 C29.40649308 -0.08227969 31.65844662 -0.08426445 33.91040039 -0.08520508 C34.97403305 -0.09239059 36.03766571 -0.09957611 37.13352966 -0.10697937 C38.12458206 -0.10390274 39.11563446 -0.10082611 40.13671875 -0.09765625 C41.4421891 -0.09979378 41.4421891 -0.09979378 42.77403259 -0.10197449 C45.44728915 0.1781969 46.92010338 0.61430229 49.13305664 2.14526367 C51.73450191 5.7887243 52.5103218 8.30287409 52.52746582 12.75535583 C52.53881561 13.87264069 52.55016541 14.98992554 52.56185913 16.1410675 C52.55892853 17.35731308 52.55599792 18.57355865 52.55297852 19.82666016 C52.56144806 21.11497742 52.5699176 22.40329468 52.5786438 23.73065186 C52.60083228 27.25756352 52.60379188 30.78424138 52.60189629 34.31121325 C52.60177647 37.25851892 52.61034506 40.20577526 52.6186738 43.15306717 C52.63789797 50.10761222 52.64079519 57.06203723 52.6340332 64.01660156 C52.62739159 71.1848546 52.65026333 78.35259318 52.68734694 85.52074188 C52.71805896 91.68142516 52.72940241 97.84194306 52.72551012 104.00270134 C52.72344428 107.67950924 52.72889575 111.35591668 52.75340271 115.0326519 C52.77983531 119.13360454 52.76593076 123.23347282 52.74829102 127.33447266 C52.76155426 128.548694 52.7748175 129.76291534 52.78848267 131.01393127 C52.69671302 140.18454742 52.69671302 140.18454742 49.71960449 143.88343811 C42.68816096 150.03213499 29.99477769 147.52876937 21.13305664 147.14526367 C10.32450994 146.05459297 1.64308429 140.73577932 -5.30444336 132.39526367 C-13.51828375 119.54941694 -12.45557674 105.79618064 -12.39819336 91.08666992 C-12.40089116 88.64957016 -12.40477598 86.21247146 -12.40979004 83.77537537 C-12.41566362 78.68933781 -12.40718578 73.60358268 -12.38842773 68.51757812 C-12.36555463 61.99843618 -12.37882817 55.47994999 -12.40271759 48.96083164 C-12.41716073 43.93797343 -12.41257776 38.91527124 -12.40220642 33.89240837 C-12.39953946 31.48783223 -12.40280779 29.0832419 -12.41212463 26.67868233 C-12.42227467 23.32544378 -12.40681321 19.97327588 -12.38452148 16.62011719 C-12.39261841 15.62836487 -12.40071533 14.63661255 -12.40905762 13.61480713 C-12.35597433 9.30816466 -12.26468126 6.8119181 -10.02209473 3.05308533 C-6.78968739 0.19163586 -4.15392207 0.01820999 0 0 Z " fill="#121215" transform="translate(93.866943359375,81.854736328125)"/>
<path d="M0 0 C1.00123901 -0.0157608 2.00247803 -0.03152161 3.03405762 -0.04776001 C4.09983032 -0.03763885 5.16560303 -0.0275177 6.26367188 -0.01708984 C7.37295044 -0.02187347 8.482229 -0.0266571 9.62512207 -0.03158569 C11.96510236 -0.03498073 14.30513033 -0.0258063 16.64501953 -0.00488281 C20.22080538 0.02188569 23.79345208 -0.00464699 27.36914062 -0.03662109 C29.64649128 -0.03331693 31.92383999 -0.02691056 34.20117188 -0.01708984 C35.26694458 -0.027211 36.33271729 -0.03733215 37.43078613 -0.04776001 C38.43202515 -0.03199921 39.43326416 -0.0162384 40.46484375 0 C41.33943237 0.00397797 42.214021 0.00795593 43.1151123 0.01205444 C46.98976992 0.95198555 49.59845856 2.28622923 51.73242188 5.64697266 C52.63582241 9.9992354 52.54128352 14.29590061 52.49291992 18.72729492 C52.49941676 20.07129331 52.50848039 21.41528136 52.51991272 22.75924683 C52.54296446 26.40202631 52.52829438 30.04375617 52.50544333 33.68650174 C52.48651105 37.5003209 52.497688 41.31407034 52.50434875 45.12791443 C52.51068633 51.53116509 52.49243393 57.93399568 52.4597168 64.3371582 C52.42220691 71.73952711 52.42400852 79.1411009 52.44675797 86.54351193 C52.46770608 93.66684842 52.46043477 100.78989109 52.44043922 107.91322136 C52.43245379 110.94391206 52.43444375 113.97435418 52.44446373 117.00503731 C52.45501433 120.57338648 52.4408919 124.14080879 52.40772057 127.70901108 C52.39559714 129.64285304 52.40803812 131.57680002 52.4211731 133.51063538 C52.40562881 134.66164734 52.39008453 135.8126593 52.37406921 136.99855042 C52.37088527 137.99865426 52.36770132 138.99875811 52.36442089 140.02916813 C51.49732424 143.6207711 49.75036466 144.65111229 46.73242188 146.64697266 C42.73517653 148.64559533 37.68864768 147.87596261 33.29492188 147.89697266 C31.72967773 147.92791016 31.72967773 147.92791016 30.1328125 147.95947266 C19.04079278 148.01455407 8.83009084 145.96288919 0.29492188 138.52197266 C-1.26757812 136.64697266 -1.26757812 136.64697266 -1.26757812 134.64697266 C-2.25757813 134.31697266 -3.24757812 133.98697266 -4.26757812 133.64697266 C-5.83789062 131.06494141 -5.83789062 131.06494141 -7.39257812 127.83447266 C-7.91078125 126.77615234 -8.42898437 125.71783203 -8.96289062 124.62744141 C-10.72368423 120.60502967 -11.39130369 117.32888732 -11.4282074 112.94764709 C-11.43825302 112.00698898 -11.44829865 111.06633087 -11.45864868 110.09716797 C-11.46739517 108.55959839 -11.46739517 108.55959839 -11.47631836 106.9909668 C-11.48610214 105.90601425 -11.49588593 104.82106171 -11.50596619 103.70323181 C-11.53588291 100.11287665 -11.55729071 96.52255846 -11.57617188 92.93212891 C-11.5827437 91.70639097 -11.58931553 90.48065304 -11.5960865 89.21777153 C-11.62530118 83.40268892 -11.64922497 77.58762181 -11.66651863 71.77249151 C-11.68486562 65.73341491 -11.7182627 59.69484848 -11.77514648 53.65600586 C-11.83520785 47.17392688 -11.86606317 40.69233355 -11.87578011 34.20998955 C-11.88435627 31.73837062 -11.90322699 29.26676542 -11.93252373 26.79530525 C-11.97128627 23.34041347 -11.97249229 19.88742933 -11.96459961 16.43237305 C-11.98460022 15.40935089 -12.00460083 14.38632874 -12.02520752 13.33230591 C-11.95660688 6.65509433 -11.95660688 6.65509433 -10.07024574 3.89514923 C-6.96054281 1.06254978 -4.13225665 0.0187951 0 0 Z " fill="#121215" transform="translate(176.267578125,81.35302734375)"/>
<path d="M0 0 C0.98790024 -0.00637985 1.97580048 -0.0127597 2.99363708 -0.01933289 C4.59212242 -0.02100212 4.59212242 -0.02100212 6.22290039 -0.02270508 C7.3189711 -0.02603348 8.41504181 -0.02936188 9.54432678 -0.03279114 C11.86353129 -0.03785614 14.18274309 -0.04019959 16.50195312 -0.04003906 C20.05293763 -0.04222548 23.6036115 -0.06038574 27.15454102 -0.0793457 C29.40649308 -0.08227969 31.65844662 -0.08426445 33.91040039 -0.08520508 C34.97403305 -0.09239059 36.03766571 -0.09957611 37.13352966 -0.10697937 C38.12458206 -0.10390274 39.11563446 -0.10082611 40.13671875 -0.09765625 C41.4421891 -0.09979378 41.4421891 -0.09979378 42.77403259 -0.10197449 C45.37845092 0.17098229 46.93936474 0.72657197 49.13305664 2.14526367 C51.39024308 5.53104333 51.39034743 6.7037052 51.41394043 10.6734314 C51.43107086 12.39788734 51.43107086 12.39788734 51.44854736 14.15718079 C51.45078308 15.41959091 51.4530188 16.68200104 51.45532227 17.98266602 C51.46458027 19.32473801 51.47462982 20.66680475 51.4854126 22.00886536 C51.51164731 25.65559934 51.52454753 29.30225971 51.53343391 32.94907331 C51.53929696 35.22743819 51.54750681 37.50578297 51.55644226 39.78413773 C51.58378737 46.91271603 51.60312354 54.04124838 51.61084604 61.1698755 C51.61980974 69.39895795 51.65491734 77.62737634 51.71284723 85.85625684 C51.75607363 92.21729087 51.77625412 98.578138 51.77892828 104.93931735 C51.78102479 108.73862716 51.79284596 112.53731256 51.8285675 116.33646774 C51.86151922 119.91051314 51.86584765 123.48346451 51.84828949 127.05760765 C51.84601371 128.99258243 51.87345843 130.9275208 51.90179443 132.86228943 C51.82208599 141.12973379 51.82208599 141.12973379 49.84804821 144.03918076 C46.58588726 146.89305004 43.72643815 147.77095293 39.46508789 147.73901367 C37.87664063 147.73514648 37.87664063 147.73514648 36.25610352 147.73120117 C35.16362305 147.7028418 34.07114258 147.67448242 32.94555664 147.64526367 C31.33583984 147.64913086 31.33583984 147.64913086 29.69360352 147.65307617 C17.2773631 147.50284943 7.29845778 144.82752738 -1.86694336 136.14526367 C-6.70572575 129.93390028 -11.10808482 123.22783012 -11.12763977 115.16036987 C-11.13472458 114.18179016 -11.14180939 113.20321045 -11.14910889 112.19497681 C-11.14663147 111.13298065 -11.14415405 110.0709845 -11.14160156 108.97680664 C-11.14671249 107.8494812 -11.15182343 106.72215576 -11.15708923 105.56066895 C-11.17098446 101.83620897 -11.17002894 98.11193397 -11.16772461 94.38745117 C-11.17161061 91.80103486 -11.17594508 89.21461919 -11.18070984 86.62820435 C-11.18817121 81.20955057 -11.18801884 75.79096861 -11.18261719 70.37231445 C-11.17656804 64.10729976 -11.18891505 57.84250912 -11.21018726 51.57753265 C-11.22990815 45.54776677 -11.2329797 39.51811857 -11.22945213 33.48831558 C-11.22996673 30.92298989 -11.23523029 28.35766071 -11.24526405 25.79235458 C-11.25754912 22.21303571 -11.25088499 18.63424161 -11.23925781 15.05493164 C-11.24690155 13.98888702 -11.25454529 12.92284241 -11.26242065 11.82449341 C-11.25540634 10.85155334 -11.24839203 9.87861328 -11.24116516 8.87619019 C-11.2413329 8.03002577 -11.24150064 7.18386135 -11.24167347 6.31205559 C-10.77741777 3.62760227 -10.01297625 2.77894731 -7.86694336 1.14526367 C-4.94289493 0.17058086 -3.04539129 0.0133504 0 0 Z " fill="#121215" transform="translate(10.866943359375,81.854736328125)"/>
<path d="M0 0 C1.09642822 -0.00700928 2.19285645 -0.01401855 3.32250977 -0.02124023 C6.9540324 -0.03887068 10.58477773 -0.02717398 14.21630859 -0.01367188 C16.74254506 -0.01636648 19.26878051 -0.02024864 21.79501343 -0.02526855 C27.09619959 -0.03117145 32.39710744 -0.02296123 37.69824219 -0.00390625 C43.80584594 0.01779571 49.91291415 0.01086093 56.02050459 -0.01121187 C61.9130576 -0.03164719 67.80540918 -0.02935936 73.69797897 -0.01768494 C76.19611054 -0.01502457 78.69425584 -0.01826301 81.19237137 -0.02760315 C84.69631692 -0.03782312 88.19925403 -0.02218689 91.703125 0 C92.72687225 -0.00809692 93.75061951 -0.01619385 94.8053894 -0.02453613 C105.67013453 0.10216907 113.26823898 3.67406029 121.04443359 11.16992188 C130.14670002 20.90384024 131.4935039 31.95840254 131.67724609 44.89257812 C131.69956299 45.84406738 131.72187988 46.79555664 131.74487305 47.77587891 C131.7261939 53.49371653 131.23581299 57.09311039 127.23974609 61.51757812 C124.35277032 63.27969836 122.20831299 63.76819378 118.84654236 63.77154541 C117.53691025 63.78000488 117.53691025 63.78000488 116.20082092 63.78863525 C115.25065598 63.78458679 114.30049103 63.78053833 113.3215332 63.77636719 C112.31449341 63.77987183 111.30745361 63.78337646 110.26989746 63.7869873 C106.93555839 63.79579954 103.60143114 63.78995406 100.26708984 63.78320312 C97.94503234 63.78455066 95.62297512 63.78649193 93.30091858 63.78900146 C88.4277173 63.79195266 83.55458926 63.78765792 78.68139648 63.77832031 C72.45648526 63.76697023 66.23174736 63.77345706 60.00684261 63.78546524 C55.20679948 63.79272191 50.40679681 63.79037771 45.6067524 63.78520966 C43.31319724 63.78388136 41.01963834 63.78549194 38.72608757 63.79016876 C35.50520104 63.79529165 32.28458713 63.78744136 29.0637207 63.77636719 C27.65972771 63.78243988 27.65972771 63.78243988 26.22737122 63.78863525 C16.19432935 63.72526033 7.35397515 62.74077922 -0.76025391 56.51757812 C-1.38931641 56.0509375 -2.01837891 55.58429687 -2.66650391 55.10351562 C-8.80126967 50.2424936 -12.2805466 43.9364478 -14.76025391 36.51757812 C-15.27304939 31.86151905 -15.23400723 27.21693733 -15.20629883 22.53735352 C-15.19773329 20.3247535 -15.22669229 18.11469309 -15.25830078 15.90234375 C-15.25991179 14.48893306 -15.25933719 13.07551782 -15.25634766 11.66210938 C-15.25820068 10.38698486 -15.26005371 9.11186035 -15.26196289 7.7980957 C-14.76025391 4.51757812 -14.76025391 4.51757812 -13.40141296 2.34489441 C-9.20204066 -0.56048964 -4.98909509 -0.03899663 0 0 Z " fill="#121216" transform="translate(14.76025390625,-0.517578125)"/>
<path d="M0 0 C0.70309296 -0.00478363 1.40618591 -0.00956726 2.13058472 -0.01449585 C3.61832923 -0.01789276 5.10614858 -0.00870432 6.59375 0.01220703 C8.84029834 0.03874487 11.08174152 0.01258818 13.328125 -0.01953125 C25.55620651 -0.05013567 33.77256021 3.07528982 42.765625 11.48046875 C45.82322874 14.85833534 47.89028438 18.5214519 49.7421875 22.6640625 C50.08531982 23.3869043 50.42845215 24.10974609 50.78198242 24.85449219 C52.56059034 30.05871794 52.11403739 35.61620812 52.11279297 41.06616211 C52.11718216 43.22393827 52.15358699 45.37969237 52.19140625 47.53710938 C52.19727237 48.91405555 52.20124313 50.29101137 52.203125 51.66796875 C52.21134277 52.91392822 52.21956055 54.1598877 52.22802734 55.44360352 C51.64129748 59.33282646 50.77589507 60.25058039 47.7421875 62.6640625 C45.24476624 63.1787262 45.24476624 63.1787262 42.41040039 63.19750977 C40.81338036 63.22126427 40.81338036 63.22126427 39.18409729 63.24549866 C38.03924362 63.24053879 36.89438995 63.23557892 35.71484375 63.23046875 C34.53377548 63.23666733 33.35270721 63.24286591 32.135849 63.24925232 C29.63850733 63.25635527 27.14111836 63.25316831 24.64379883 63.24047852 C20.82219239 63.22662595 17.00303972 63.26066584 13.18164062 63.29882812 C10.75520773 63.29977942 8.32877178 63.29791995 5.90234375 63.29296875 C4.75951431 63.30622696 3.61668488 63.31948517 2.43922424 63.33314514 C-2.22637525 63.27838515 -5.36890629 63.16329735 -9.47851562 60.85522461 C-12.19741654 55.97888627 -11.95321269 51.47305813 -11.88671875 45.9765625 C-11.88913071 44.84130127 -11.89154266 43.70604004 -11.89402771 42.53637695 C-11.89304938 40.13912458 -11.87965946 37.74184958 -11.85473633 35.34472656 C-11.82043306 31.67695305 -11.83407913 28.01158939 -11.85351562 24.34375 C-11.84661704 22.01301058 -11.83694456 19.68227738 -11.82421875 17.3515625 C-11.82917862 16.25561768 -11.83413849 15.15967285 -11.83924866 14.03051758 C-11.7709546 9.61209855 -11.65691738 6.46867864 -9.67602539 2.47509766 C-6.35366873 -0.01306405 -4.13128921 0.01795098 0 0 Z " fill="#121215" transform="translate(176.2578125,-0.6640625)"/>
</svg>
